<svg width="22" height="17" viewBox="0 0 22 17" fill="none" xmlns="http://www.w3.org/2000/svg">
<path fill-rule="evenodd" clip-rule="evenodd" d="M12.7279 12.5607L14.1421 11.1464L17.6777 14.682L16.2635 16.0962L12.7279 12.5607ZM12.7279 11.1464C10.3848 13.4896 6.58579 13.4896 4.24264 11.1464C1.89949 8.8033 1.89949 5.00431 4.24264 2.66117C6.58579 0.318022 10.3848 0.318022 12.7279 2.66117C15.0711 5.00431 15.0711 8.8033 12.7279 11.1464ZM11.3137 9.73224C12.8758 8.17014 12.8758 5.63748 11.3137 4.07538C9.75161 2.51328 7.21895 2.51328 5.65685 4.07538C4.09476 5.63748 4.09476 8.17014 5.65685 9.73224C7.21895 11.2943 9.75161 11.2943 11.3137 9.73224Z" fill="black"/>
</svg>
